PathFileType  4	(X/Y/Z) C:\Users\antoi\Documents\MyRepositories\mobilecap\ResultsAnalysis
DataRate	CameraRate	NumFrames	NumMarkers	Units	OrigDataRate	OrigDataStartFrame	OrigNumFrames
100.0	100.0	5	51	mm	100.0	72	143
Frame#	Time	r_knee			r_shank_antsup			r_ankle			r_calc			r_5meta			r_toe			L_knee			L_shank_antsup			L_ankle			L_calc			L_5meta			L_toe			r_sh2			r_sh3			r_sh4			L_sh2			L_sh3			r_thigh1			r_thigh2			r_thigh3			r_thigh4			r_thigh5			L_thigh1			L_thigh2			L_thigh3			L_thigh4			r.ASIS			r.PSIS			L.ASIS			L.PSIS			C7			R_Shoulder			L_Shoulder			R_Sternum			L_Sternum			R_humerus			R_elbow_med			R_elbow_lat			R_forearm			R_wrist_radius			R_wrist_ulna			L_humerus			L_elbow_med			L_elbow_lat			L_forearm			L_wrist_radius			L_wrist_ulna			R_HJC			L_HJC			R_HJC_reg			L_HJC_reg			
		X1	Y1	Z1	X2	Y2	Z2	X3	Y3	Z3	X4	Y4	Z4	X5	Y5	Z5	X6	Y6	Z6	X7	Y7	Z7	X8	Y8	Z8	X9	Y9	Z9	X10	Y10	Z10	X11	Y11	Z11	X12	Y12	Z12	X13	Y13	Z13	X14	Y14	Z14	X15	Y15	Z15	X16	Y16	Z16	X17	Y17	Z17	X18	Y18	Z18	X19	Y19	Z19	X20	Y20	Z20	X21	Y21	Z21	X22	Y22	Z22	X23	Y23	Z23	X24	Y24	Z24	X25	Y25	Z25	X26	Y26	Z26	X27	Y27	Z27	X28	Y28	Z28	X29	Y29	Z29	X30	Y30	Z30	X31	Y31	Z31	X32	Y32	Z32	X33	Y33	Z33	X34	Y34	Z34	X35	Y35	Z35	X36	Y36	Z36	X37	Y37	Z37	X38	Y38	Z38	X39	Y39	Z39	X40	Y40	Z40	X41	Y41	Z41	X42	Y42	Z42	X43	Y43	Z43	X44	Y44	Z44	X45	Y45	Z45	X46	Y46	Z46	X47	Y47	Z47	X48	Y48	Z48	X49	Y49	Z49	X50	Y50	Z50	X51	Y51	Z51	

72	0.71000000	654.07073	461.18141	-71.84053	637.08495	380.85914	-87.86527	348.58184	195.54177	-98.46378	283.94424	228.21959	-135.83771	367.58572	70.67742	-80.49433	422.84408	58.36060	-133.84186	878.02575	494.51789	-344.99819	921.31501	404.09169	-342.99545	883.00360	94.69482	-312.95996	812.51841	64.08084	-267.62135	989.84612	40.86071	-347.14869	1027.85076	63.81728	-291.11678	539.97692	320.06051	-67.24448	589.29693	446.48623	-59.26204	496.95128	382.15448	-61.54796	831.00402	405.62587	-353.82710	841.42787	282.97106	-355.45199	771.75765	762.70410	-46.10399	749.87249	653.99601	-51.04908	692.58799	638.78848	-30.47997	659.64535	780.29963	-30.42965	641.72648	665.19227	-45.28440	721.60570	718.93779	-378.54023	776.00283	590.48554	-355.91096	830.41583	759.73153	-403.04204	877.25311	632.12768	-371.58920	808.78279	936.21539	-80.79895	624.89071	985.16794	-170.01670	831.23833	939.02089	-330.53572	623.72168	994.29112	-270.75644	616.98700	1393.94651	-226.21217	736.85836	1368.41141	-58.31526	681.53105	1355.04629	-411.49913	759.60939	1366.58265	-219.86718	759.81174	1366.33468	-262.92656	772.19198	1234.60392	-1.45316	731.19004	1017.68148	-28.73784	765.60655	1035.86802	28.92432	868.75948	938.67499	10.08399	939.75777	824.32721	-11.27878	924.17758	808.94550	16.92810	669.97877	1238.36915	-465.28885	595.10598	1023.51633	-372.69480	587.33502	1040.75756	-449.56755	614.63489	930.83831	-475.71611	585.93382	772.78303	-493.11671	555.73096	784.04653	-505.79993	730.21999	860.58830	-113.25738	745.28489	868.81062	-319.01209	745.09967	858.38546	-121.54450	743.18697	873.31257	-286.36539	
73	0.72000000	677.83709	459.27922	-70.48871	659.45480	379.64237	-86.47572	365.58576	204.07943	-97.34585	303.75577	241.80605	-135.09703	376.03770	77.95100	-80.19983	431.11601	62.04893	-132.64119	884.93301	494.47538	-346.65485	927.00870	403.09848	-344.71307	883.27894	94.72901	-312.94907	812.63215	64.18797	-267.63014	989.89503	40.67872	-347.44355	1027.97816	63.26354	-291.26288	560.74994	322.37014	-65.54552	613.89448	446.63474	-57.82216	519.54183	385.29928	-60.77635	836.63403	406.08843	-355.33864	845.10371	283.25931	-356.27840	786.44645	763.80211	-46.81840	767.47075	654.77589	-50.10696	710.70106	637.88014	-30.00622	673.68847	778.57824	-32.25307	659.28451	662.95145	-45.59193	731.29456	720.83589	-380.48488	784.23159	592.11335	-357.98583	840.93519	760.55799	-405.05845	886.31801	632.26571	-373.58155	820.21766	937.32130	-82.57651	636.47342	985.78203	-171.12005	843.09610	940.84625	-332.23272	635.45924	995.49754	-271.82802	628.95804	1395.29928	-228.09239	748.31934	1370.16257	-59.91817	694.26358	1356.43142	-413.06164	771.48855	1367.99756	-221.27636	771.89892	1367.73607	-264.31439	783.09543	1236.38116	-2.65307	740.62441	1019.78343	-29.33144	775.00439	1037.82346	28.39787	877.27481	939.53728	10.33608	947.06713	824.29468	-10.09508	931.25182	809.30754	17.96068	684.04232	1239.60671	-467.20710	610.21604	1024.05087	-375.48950	603.24695	1041.11005	-452.46675	632.52632	931.53888	-478.28819	606.28835	772.77122	-496.26034	576.43517	783.80011	-508.94017	742.19361	861.43866	-115.04645	757.16548	870.44789	-320.77458	757.02006	858.99248	-123.91689	755.36135	874.88295	-288.62505	
74	0.73000000	701.90081	457.75553	-69.21932	682.40937	378.82096	-85.33828	383.61950	212.70101	-96.54555	324.40010	254.42118	-134.87934	386.73964	85.99973	-79.73776	441.61869	66.91468	-131.25335	890.96567	494.24144	-348.20278	932.07638	402.12035	-346.29033	883.51464	94.75570	-312.94519	812.74223	64.29249	-267.63554	989.95038	40.52329	-347.65310	1028.10812	62.84903	-291.36325	582.32380	324.73608	-64.08931	638.99182	447.00256	-56.42896	542.83182	388.56947	-60.09364	841.59842	406.49155	-356.69034	848.36154	283.48196	-356.96690	800.90548	765.05175	-47.38171	785.17911	655.58451	-49.31086	728.67637	637.17103	-29.45065	687.61530	776.86456	-34.02184	676.75369	660.90250	-45.86282	740.02380	722.82625	-381.88776	791.42378	593.68523	-359.54758	850.78987	760.93055	-406.99659	894.55845	632.12347	-375.56123	831.47238	938.29781	-84.17421	647.76214	986.28948	-172.21286	854.72020	942.53715	-333.78948	646.94746	996.64398	-272.88483	640.78805	1396.59054	-229.96281	759.51716	1371.82096	-61.41776	706.96308	1357.71944	-414.56745	783.21665	1369.33736	-222.58094	783.86741	1369.05628	-265.60172	793.77877	1238.06191	-3.76814	749.89927	1021.78014	-29.82725	784.15344	1039.68199	27.96059	885.61493	940.36496	10.73320	954.25126	824.27525	-8.74328	938.27899	809.70455	19.27826	698.19057	1240.76386	-469.07396	625.43552	1024.43475	-378.34291	619.32699	1041.34858	-455.41651	650.76076	932.18560	-480.89565	627.19561	772.66544	-499.50552	597.77112	783.49525	-512.15550	753.88419	862.18846	-116.74080	768.82332	871.96824	-322.43596	768.69852	859.40607	-126.19728	767.36651	876.33706	-290.80248	
75	0.74000000	726.09108	456.80928	-68.05329	705.82535	378.50265	-84.44755	402.58377	221.27540	-96.13287	345.55869	265.74993	-135.24829	400.01861	94.54548	-79.04724	454.69273	72.79182	-129.68571	896.32857	493.93241	-349.58155	936.62479	401.21607	-347.63801	883.74272	94.79880	-312.94335	812.83814	64.40035	-267.63932	990.01149	40.38940	-347.79036	1028.21019	62.51590	-291.42567	604.48433	327.15715	-62.97071	664.35208	447.72217	-55.20565	566.60924	392.02311	-59.53919	846.03139	406.87964	-357.90172	851.31028	283.68859	-357.55361	815.13415	766.55055	-47.85962	802.97100	656.51807	-48.76397	746.42931	636.80739	-28.90339	701.44194	775.28979	-35.74984	694.10320	659.22896	-46.16247	748.01274	724.88748	-382.78717	797.75809	595.23477	-360.58955	860.02572	760.99037	-408.76000	902.08786	631.81304	-377.41904	842.52790	939.13214	-85.56801	658.77419	986.72918	-173.31849	866.12275	944.05850	-335.19224	658.19188	997.76921	-273.95976	652.46753	1397.84701	-231.81881	770.43841	1373.36635	-62.78773	719.62992	1358.89145	-416.03345	794.77931	1370.62428	-223.78301	795.70025	1370.30836	-266.78409	804.18448	1239.61509	-4.76638	759.03827	1023.60782	-30.25012	793.06138	1041.41407	27.60166	893.78994	941.13590	11.27547	961.32871	824.25226	-7.23307	945.26468	810.11444	20.85388	712.43814	1241.80152	-470.87530	640.72992	1024.63905	-381.26540	635.56753	1041.45187	-458.42005	669.31777	932.75620	-483.52039	648.60952	772.47018	-502.80844	619.72047	783.13198	-515.42237	765.24794	862.84937	-118.33600	780.24930	873.36367	-323.99064	780.11887	859.62062	-128.35031	779.16701	877.66843	-292.87058	
76	0.75000000	750.25734	456.59767	-67.00597	729.58146	378.76647	-83.78396	422.45199	229.60620	-96.13246	367.03632	275.61257	-136.16334	416.03501	103.24092	-78.10823	470.51379	79.38249	-127.97920	901.23131	493.64480	-350.76520	940.75796	400.41928	-348.72051	883.99061	94.87644	-312.93627	812.91393	64.51635	-267.64110	990.07319	40.27694	-347.87547	1028.27768	62.22823	-291.46226	627.04447	329.66751	-62.25021	689.76393	448.88793	-54.25167	590.68187	395.66195	-59.13800	850.06826	407.26951	-358.98222	854.03143	283.91304	-358.06314	829.16343	768.39733	-48.31026	820.79530	657.71797	-48.48279	763.92183	636.92346	-28.44821	715.18920	773.98569	-37.44646	711.34211	658.08745	-46.54108	755.58649	726.96016	-383.31780	803.50464	596.77873	-361.18560	868.69963	760.90429	-410.28948	909.04531	631.42759	-379.07492	853.37220	939.85242	-86.75350	669.53924	987.17530	-174.44471	877.32231	945.39893	-336.43990	669.20863	998.91783	-275.07101	663.98539	1399.11104	-233.64536	781.08655	1374.79717	-64.00929	732.25992	1359.95186	-417.47356	806.16955	1371.88787	-224.88458	807.38153	1371.51532	-267.85845	814.25982	1241.03344	-5.61944	768.04883	1025.23714	-30.62284	801.73770	1043.00982	27.30916	901.80613	941.84532	11.95935	968.29655	824.21832	-5.57473	952.18231	810.51833	22.63686	726.79380	1242.70237	-472.59592	656.08043	1024.65389	-384.26619	651.98008	1041.41468	-461.47775	688.18137	933.24630	-486.13125	670.52237	772.23753	-506.08667	642.25157	782.72382	-518.70225	776.26348	863.46712	-119.82083	791.43774	874.64518	-325.42880	791.26602	859.69777	-130.33268	790.72564	878.88967	-294.79495	
